<svg width="24" height="24" viewBox="0 0 24 24" fill="none" xmlns="http://www.w3.org/2000/svg">
<path fill-rule="evenodd" clip-rule="evenodd" d="M14.0254 5.75812C13.3929 3.74729 10.6071 3.74729 9.97457 5.75812C9.88439 6.0448 9.63593 6.21631 9.38003 6.21631C7.27097 6.21631 6.50789 8.93003 8.12022 10.1401C8.3424 10.3068 8.44666 10.6157 8.35534 10.906C8.04546 11.8912 8.44291 12.8128 9.12096 13.3217C9.80251 13.8332 10.8037 13.9498 11.6406 13.3217C11.8566 13.1595 12.1434 13.1595 12.3594 13.3217C13.1963 13.9498 14.1975 13.8332 14.879 13.3217C15.5571 12.8128 15.9545 11.8912 15.6446 10.906C15.5533 10.6157 15.6576 10.3068 15.8798 10.1401C17.4921 8.93003 16.729 6.21631 14.62 6.21631C14.3641 6.21631 14.1156 6.0448 14.0254 5.75812ZM9.38003 7.71631C10.3176 7.71631 11.1268 7.09399 11.4055 6.20819C11.5976 5.59727 12.4024 5.59727 12.5945 6.20819C12.8732 7.09399 13.6824 7.71631 14.62 7.71631C14.91 7.71631 15.1265 7.89471 15.2145 8.17451C15.303 8.45601 15.2307 8.75176 14.9794 8.9404C14.236 9.49828 13.9363 10.4739 14.2138 11.3561C14.3162 11.6818 14.1936 11.9606 13.9786 12.122C13.7672 12.2807 13.5024 12.304 13.2598 12.122C12.5103 11.5594 11.4897 11.5594 10.7402 12.122C10.4976 12.304 10.2328 12.2807 10.0213 12.122C9.80639 11.9606 9.68379 11.6818 9.78623 11.3561C10.0637 10.4739 9.76396 9.49829 9.02061 8.9404C8.76927 8.75176 8.69695 8.45601 8.78549 8.17451C8.8735 7.89471 9.08997 7.71631 9.38003 7.71631Z" fill="#898989"/>
<path fill-rule="evenodd" clip-rule="evenodd" d="M12 0.25C7.1675 0.25 3.24999 4.16751 3.24999 9C3.24999 10.1746 3.48182 11.2965 3.90263 12.3214C3.61222 12.6576 3.3432 13.1238 2.98101 13.7513L1.15503 16.914C0.929565 17.3044 0.721084 17.6654 0.600886 17.9642C0.483153 18.2569 0.33488 18.7645 0.662541 19.2343C0.994353 19.71 1.52698 19.7382 1.84263 19.7225C2.16223 19.7066 2.56851 19.6267 3.00494 19.5407L3.79621 19.3851C4.23487 19.2988 4.49513 19.2491 4.68823 19.2358C4.77643 19.2297 4.82378 19.2338 4.84708 19.2377C4.85779 19.2395 4.86281 19.2412 4.8641 19.2416C4.86519 19.242 4.86577 19.2423 4.86704 19.243C4.86831 19.2437 4.86882 19.2441 4.86969 19.2449C4.87073 19.2458 4.87469 19.2493 4.8816 19.2576C4.89664 19.2759 4.92385 19.3148 4.9627 19.3942C5.04775 19.5681 5.13478 19.8184 5.27939 20.2414L5.5402 21.0044C5.68402 21.4254 5.81792 21.8172 5.96396 22.102C6.1082 22.3832 6.39894 22.8304 6.97685 22.8798C7.54752 22.9287 7.91294 22.5465 8.10756 22.2982C8.30625 22.0447 8.51463 21.6837 8.73999 21.2932L10.5291 18.1944C10.6388 18.0043 10.7389 17.831 10.8287 17.6722C11.2121 17.7235 11.6031 17.75 12 17.75C12.3072 17.75 12.611 17.7341 12.9105 17.7031C12.9957 17.8534 13.0898 18.0163 13.1923 18.194L14.9817 21.2932C15.207 21.6837 15.4154 22.0447 15.6141 22.2982C15.8087 22.5465 16.1741 22.9287 16.7448 22.8798C17.3227 22.8304 17.6135 22.3832 17.7577 22.102C17.9037 21.8173 18.0376 21.4254 18.1814 21.0045L18.4423 20.2414C18.5869 19.8184 18.6739 19.5681 18.759 19.3942C18.7978 19.3148 18.825 19.2759 18.8401 19.2576C18.8409 19.2566 18.8417 19.2556 18.8425 19.2547C18.8479 19.2484 18.8511 19.2456 18.852 19.2449L18.8532 19.2439L18.8546 19.243C18.8559 19.2423 18.8565 19.242 18.8576 19.2416C18.8589 19.2412 18.8639 19.2395 18.8746 19.2377C18.8979 19.2338 18.9452 19.2297 19.0334 19.2358C19.2265 19.2491 19.4868 19.2988 19.9255 19.3851L20.7167 19.5407C21.1532 19.6267 21.5594 19.7066 21.879 19.7225C22.1947 19.7382 22.7273 19.71 23.0591 19.2343C23.3868 18.7645 23.2385 18.2569 23.1208 17.9642C23.0006 17.6654 22.7921 17.3045 22.5667 16.9141L20.7219 13.7188C20.4482 13.2443 20.2264 12.8598 19.9995 12.5503C20.4821 11.4645 20.75 10.2627 20.75 9C20.75 4.16751 16.8325 0.25 12 0.25ZM4.74999 9C4.74999 4.99594 7.99593 1.75 12 1.75C16.0041 1.75 19.25 4.99594 19.25 9C19.25 10.1987 18.9597 11.3274 18.4461 12.3217C17.4179 14.3128 15.495 15.7651 13.2128 16.1491C12.8189 16.2154 12.4138 16.25 12 16.25C11.5162 16.25 11.0441 16.2027 10.588 16.1127C8.35289 15.6718 6.48417 14.2015 5.49948 12.2143C5.01992 11.2465 4.74999 10.1558 4.74999 9ZM4.23649 14.5768C4.4261 14.2484 4.57016 14.0003 4.68796 13.8075C5.76964 15.4496 7.38992 16.7061 9.29896 17.325L7.46679 20.4984C7.33594 20.7251 7.2317 20.9047 7.14456 21.0475C7.08874 20.8957 7.02364 20.7066 6.94259 20.4696L6.68547 19.7174C6.55868 19.3463 6.44182 19.0044 6.31013 18.7351C6.16474 18.4379 5.962 18.1431 5.61704 17.944C5.27208 17.7448 4.91542 17.7166 4.58532 17.7393C4.28633 17.7599 3.93176 17.8297 3.54704 17.9054L2.76704 18.0588C2.52119 18.1072 2.32494 18.1453 2.16558 18.1728C2.24565 18.026 2.34908 17.8459 2.47993 17.6193L4.23649 14.5768ZM14.4648 17.3979C16.39 16.8337 18.0388 15.6263 19.1639 14.0252C19.2547 14.1786 19.3601 14.3602 19.4852 14.5768L21.2417 17.6193C21.3726 17.8459 21.476 18.026 21.5561 18.1728C21.3967 18.1453 21.2005 18.1072 20.9546 18.0588L20.1747 17.9054C19.79 17.8297 19.4354 17.7599 19.1363 17.7393C18.8062 17.7166 18.4496 17.7448 18.1046 17.944C17.7597 18.1431 17.5569 18.4379 17.4115 18.7351C17.2798 19.0044 17.163 19.3463 17.0362 19.7174L16.7791 20.4696C16.698 20.7066 16.6329 20.8957 16.5771 21.0475C16.49 20.9047 16.3857 20.7251 16.2549 20.4984L14.4648 17.3979Z" fill="#898989"/>
</svg>
