<svg width="24" height="24" viewBox="0 0 24 24" fill="none" xmlns="http://www.w3.org/2000/svg">
<path fill-rule="evenodd" clip-rule="evenodd" d="M14.0254 5.75812C13.3929 3.74729 10.607 3.74729 9.97454 5.75812C9.88436 6.0448 9.6359 6.21631 9.38 6.21631C7.27094 6.21631 6.50786 8.93003 8.12019 10.1401C8.34237 10.3068 8.44663 10.6157 8.35531 10.906C8.04543 11.8912 8.44288 12.8128 9.12093 13.3217C9.80248 13.8332 10.8036 13.9498 11.6405 13.3217C11.8566 13.1595 12.1434 13.1595 12.3594 13.3217C13.1963 13.9498 14.1974 13.8332 14.879 13.3217C15.557 12.8128 15.9545 11.8912 15.6446 10.906C15.5533 10.6157 15.6576 10.3068 15.8797 10.1401C17.4921 8.93003 16.729 6.21631 14.6199 6.21631C14.364 6.21631 14.1156 6.0448 14.0254 5.75812ZM9.38 7.71631C10.3175 7.71631 11.1268 7.09399 11.4054 6.20819C11.5976 5.59727 12.4023 5.59727 12.5945 6.20819C12.8731 7.09399 13.6824 7.71631 14.6199 7.71631C14.91 7.71631 15.1265 7.89471 15.2145 8.17451C15.303 8.45601 15.2307 8.75176 14.9793 8.9404C14.236 9.49828 13.9363 10.4739 14.2137 11.3561C14.3162 11.6818 14.1936 11.9606 13.9786 12.122C13.7672 12.2807 13.5024 12.304 13.2598 12.122C12.5103 11.5594 11.4897 11.5594 10.7402 12.122C10.4976 12.304 10.2328 12.2807 10.0213 12.122C9.80636 11.9606 9.68376 11.6818 9.7862 11.3561C10.0637 10.4739 9.76393 9.49829 9.02058 8.9404C8.76924 8.75176 8.69691 8.45601 8.78546 8.17451C8.87347 7.89471 9.08994 7.71631 9.38 7.71631Z" fill="#FAFAFA"/>
<path fill-rule="evenodd" clip-rule="evenodd" d="M12 0.25C7.16747 0.25 3.24996 4.16751 3.24996 9C3.24996 10.1746 3.48179 11.2965 3.90259 12.3214C3.61219 12.6576 3.34317 13.1238 2.98098 13.7513L1.155 16.914C0.929535 17.3044 0.721054 17.6654 0.600856 17.9642C0.483122 18.2569 0.334849 18.7645 0.662511 19.2343C0.994323 19.71 1.52695 19.7382 1.8426 19.7225C2.1622 19.7066 2.56848 19.6267 3.00491 19.5407L3.79618 19.3851C4.23484 19.2988 4.4951 19.2491 4.6882 19.2358C4.7764 19.2297 4.82375 19.2338 4.84705 19.2377C4.85775 19.2395 4.86278 19.2412 4.86407 19.2416C4.86516 19.242 4.86574 19.2423 4.86701 19.243C4.86828 19.2437 4.86879 19.2441 4.86966 19.2449C4.8707 19.2458 4.87466 19.2493 4.88157 19.2576C4.89661 19.2759 4.92382 19.3148 4.96267 19.3942C5.04772 19.5681 5.13475 19.8184 5.27936 20.2414L5.54017 21.0044C5.68399 21.4254 5.81789 21.8172 5.96393 22.102C6.10817 22.3832 6.39891 22.8304 6.97682 22.8798C7.54749 22.9287 7.91291 22.5465 8.10753 22.2982C8.30622 22.0447 8.5146 21.6837 8.73996 21.2932L10.5291 18.1944C10.6388 18.0043 10.7389 17.831 10.8287 17.6722C11.2121 17.7235 11.6031 17.75 12 17.75C12.3072 17.75 12.611 17.7341 12.9105 17.7031C12.9957 17.8534 13.0898 18.0163 13.1923 18.194L14.9816 21.2932C15.207 21.6837 15.4154 22.0447 15.6141 22.2982C15.8087 22.5465 16.1741 22.9287 16.7448 22.8798C17.3227 22.8304 17.6134 22.3832 17.7577 22.102C17.9037 21.8173 18.0376 21.4254 18.1814 21.0045L18.4422 20.2414C18.5869 19.8184 18.6739 19.5681 18.7589 19.3942C18.7978 19.3148 18.825 19.2759 18.84 19.2576C18.8409 19.2566 18.8417 19.2556 18.8425 19.2547C18.8479 19.2484 18.851 19.2456 18.8519 19.2449L18.8532 19.2439L18.8546 19.243C18.8559 19.2423 18.8564 19.242 18.8575 19.2416C18.8588 19.2412 18.8639 19.2395 18.8746 19.2377C18.8979 19.2338 18.9452 19.2297 19.0334 19.2358C19.2265 19.2491 19.4868 19.2988 19.9254 19.3851L20.7167 19.5407C21.1531 19.6267 21.5594 19.7066 21.879 19.7225C22.1947 19.7382 22.7273 19.71 23.0591 19.2343C23.3868 18.7645 23.2385 18.2569 23.1208 17.9642C23.0006 17.6654 22.7921 17.3045 22.5667 16.9141L20.7219 13.7188C20.4482 13.2443 20.2264 12.8598 19.9995 12.5503C20.482 11.4645 20.75 10.2627 20.75 9C20.75 4.16751 16.8325 0.25 12 0.25ZM4.74996 9C4.74996 4.99594 7.9959 1.75 12 1.75C16.004 1.75 19.25 4.99594 19.25 9C19.25 10.1987 18.9596 11.3274 18.4461 12.3217C17.4178 14.3128 15.4949 15.7651 13.2128 16.1491C12.8189 16.2154 12.4137 16.25 12 16.25C11.5161 16.25 11.0441 16.2027 10.588 16.1127C8.35286 15.6718 6.48414 14.2015 5.49945 12.2143C5.01989 11.2465 4.74996 10.1558 4.74996 9ZM4.23646 14.5768C4.42607 14.2484 4.57013 14.0003 4.68793 13.8075C5.76961 15.4496 7.38989 16.7061 9.29893 17.325L7.46676 20.4984C7.33591 20.7251 7.23167 20.9047 7.14453 21.0475C7.08871 20.8957 7.02361 20.7066 6.94256 20.4696L6.68544 19.7174C6.55865 19.3463 6.44179 19.0044 6.3101 18.7351C6.16471 18.4379 5.96197 18.1431 5.61701 17.944C5.27205 17.7448 4.91539 17.7166 4.58529 17.7393C4.2863 17.7599 3.93172 17.8297 3.54701 17.9054L2.76701 18.0588C2.52116 18.1072 2.32491 18.1453 2.16555 18.1728C2.24562 18.026 2.34905 17.8459 2.4799 17.6193L4.23646 14.5768ZM14.4647 17.3979C16.39 16.8337 18.0388 15.6263 19.1639 14.0252C19.2547 14.1786 19.3601 14.3602 19.4851 14.5768L21.2417 17.6193C21.3726 17.8459 21.476 18.026 21.5561 18.1728C21.3967 18.1453 21.2004 18.1072 20.9546 18.0588L20.1747 17.9054C19.79 17.8297 19.4353 17.7599 19.1363 17.7393C18.8062 17.7166 18.4496 17.7448 18.1046 17.944C17.7596 18.1431 17.5569 18.4379 17.4115 18.7351C17.2798 19.0044 17.163 19.3463 17.0362 19.7174L16.779 20.4696C16.698 20.7066 16.6329 20.8957 16.5771 21.0475C16.4899 20.9047 16.3857 20.7251 16.2548 20.4984L14.4647 17.3979Z" fill="#FAFAFA"/>
</svg>
