<svg width="27" height="27" viewBox="0 0 27 27" fill="none" xmlns="http://www.w3.org/2000/svg">
<path d="M1.06066 25.1023C0.474874 24.5165 0.474874 23.5668 1.06066 22.981L22.981 1.06066C23.5668 0.47487 24.5165 0.47487 25.1023 1.06066C25.6881 1.64644 25.6881 2.59619 25.1023 3.18198L3.18198 25.1023C2.59619 25.6881 1.64645 25.6881 1.06066 25.1023Z" fill="#DB2017"/>
<path d="M1.06043 1.06066C1.64622 0.474874 2.59597 0.474874 3.18175 1.06066L25.1021 22.981C25.6878 23.5668 25.6879 24.5165 25.1021 25.1023C24.5163 25.6881 23.5665 25.6881 22.9807 25.1023L1.06043 3.18198C0.474647 2.59619 0.474647 1.64645 1.06043 1.06066Z" fill="#DB2017"/>
</svg>
