<svg width="24" height="24" viewBox="0 0 24 24" fill="none" xmlns="http://www.w3.org/2000/svg">
<path fill-rule="evenodd" clip-rule="evenodd" d="M12 3.07848L9.78722 5.36798C9.55169 5.61167 9.22731 5.74928 8.8884 5.74928H5.75002V8.88767C5.75002 9.22658 5.61241 9.55096 5.36872 9.78648L3.07922 11.9993L5.36872 14.2121C5.61241 14.4476 5.75002 14.772 5.75002 15.1109V18.2493H8.8884C9.22731 18.2493 9.55169 18.3869 9.78721 18.6306L12 20.9201L14.2128 18.6306C14.4483 18.3869 14.7727 18.2493 15.1116 18.2493H18.25V15.1109C18.25 14.772 18.3876 14.4476 18.6313 14.2121L20.9208 11.9993L18.6313 9.78649C18.3876 9.55096 18.25 9.22658 18.25 8.88768V5.74928H15.1116C14.7727 5.74928 14.4483 5.61167 14.2128 5.36798L12 3.07848ZM11.1012 1.85005C11.5926 1.34165 12.4075 1.34165 12.8988 1.85005L15.2177 4.24928H18.5C19.1904 4.24928 19.75 4.80893 19.75 5.49928V8.78162L22.1493 11.1005C22.6576 11.5918 22.6577 12.4067 22.1493 12.8981L19.75 15.2169V18.4993C19.75 19.1896 19.1904 19.7493 18.5 19.7493H15.2177L12.8988 22.1485C12.4075 22.6569 11.5926 22.6569 11.1012 22.1485L8.78235 19.7493H5.50002C4.80966 19.7493 4.25002 19.1896 4.25002 18.4993V15.217L1.85078 12.8981C1.34238 12.4067 1.34238 11.5918 1.85078 11.1005L4.25002 8.78162V5.49928C4.25002 4.80893 4.80966 4.24928 5.50002 4.24928H8.78235L11.1012 1.85005Z" fill="white"/>
<path fill-rule="evenodd" clip-rule="evenodd" d="M7.25002 11.9993C7.25002 9.37593 9.37666 7.24928 12 7.24928C14.6234 7.24928 16.75 9.37593 16.75 11.9993C16.75 14.6226 14.6234 16.7493 12 16.7493C9.37666 16.7493 7.25002 14.6226 7.25002 11.9993ZM12 8.74928C10.2051 8.74928 8.75002 10.2044 8.75002 11.9993C8.75002 13.7942 10.2051 15.2493 12 15.2493C13.7949 15.2493 15.25 13.7942 15.25 11.9993C15.25 10.2044 13.7949 8.74928 12 8.74928Z" fill="white"/>
</svg>
