<svg width="24" height="24" viewBox="0 0 24 24" fill="none" xmlns="http://www.w3.org/2000/svg">
<path d="M11.1799 19.8936C11.4136 20.3113 11.8512 20.4951 12.2407 20.4999C12.6295 20.5047 13.0775 20.3306 13.3074 19.9006L13.4717 19.5934C15.9718 14.9184 17.9753 10.045 19.4575 5.03223C19.6161 4.49555 19.3167 4.04882 18.9595 3.83448C18.6035 3.62088 18.0999 3.56983 17.6686 3.84224L13.0371 6.76727C12.4628 7.12995 11.6489 7.12519 11.0474 6.73839L6.31997 3.69825C5.89447 3.42462 5.39286 3.45368 5.02946 3.66691C4.65956 3.88394 4.37761 4.33975 4.55137 4.87361C6.19494 9.92324 8.35524 14.846 11.0057 19.5823L11.1799 19.8936Z" fill="#DB2017"/>
</svg>
