<svg width="24" height="24" viewBox="0 0 24 24" fill="none" xmlns="http://www.w3.org/2000/svg">
<path d="M16.2039 4.5755L16.294 4.6275C17.0721 5.07671 17.721 5.4513 18.1961 5.81795C18.6976 6.20494 19.0956 6.64914 19.2623 7.27132C19.429 7.8935 19.3064 8.4772 19.0656 9.06309C18.8985 9.46976 18.6527 9.92674 18.3566 10.448L17.7213 10.0704L17.7131 10.0656L10.7878 6.06728L10.1401 5.68557C10.4402 5.17448 10.7106 4.73795 10.9768 4.393C11.3638 3.89152 11.808 3.49349 12.4302 3.32678C13.0524 3.16006 13.6361 3.28267 14.222 3.52347C14.777 3.7516 15.4259 4.12624 16.2039 4.5755Z" fill="#898989"/>
<path d="M9.38872 6.98384L5.91075 13.0077C5.61296 13.5225 5.3775 13.9296 5.29026 14.3926C5.20303 14.8556 5.27421 15.3204 5.36424 15.9083L5.3885 16.0672C5.55469 17.1586 5.69167 18.0581 5.89827 18.7403C6.11434 19.4537 6.44649 20.0712 7.09977 20.4484C7.75304 20.8256 8.4539 20.8045 9.17979 20.6349C9.87385 20.4727 10.7214 20.1416 11.7496 19.7398L11.8994 19.6814C12.4535 19.4654 12.8916 19.2946 13.249 18.9876C13.6064 18.6805 13.8411 18.2731 14.1381 17.7578L17.6078 11.7479L16.959 11.3623L10.0291 7.36127L9.38872 6.98384Z" fill="#898989"/>
</svg>
