<svg width="20" height="20" viewBox="0 0 20 20" fill="none" xmlns="http://www.w3.org/2000/svg">
<path d="M8.37219 6.8594C8.79908 5.57872 10.4886 5.30454 11.2986 6.3845C11.7731 7.01712 11.74 7.8955 11.2193 8.49062L10.4532 9.36605C9.75803 10.1606 9.37484 11.1804 9.37484 12.2362V12.5C9.37484 12.8452 9.65466 13.125 9.99984 13.125C10.345 13.125 10.6248 12.8452 10.6248 12.5V12.2362C10.6248 11.4832 10.8981 10.7558 11.394 10.1892L12.16 9.31375C13.0696 8.27412 13.1275 6.73964 12.2986 5.6345C10.8836 3.74788 7.93209 4.22685 7.18633 6.46411L6.90691 7.30238C6.79776 7.62984 6.97473 7.98379 7.3022 8.09295C7.62966 8.2021 7.98361 8.02513 8.09276 7.69766L8.37219 6.8594Z" fill="#585858"/>
<path fill-rule="evenodd" clip-rule="evenodd" d="M9.99984 1.04169C5.05229 1.04169 1.0415 5.05247 1.0415 10C1.0415 14.9476 5.05229 18.9584 9.99984 18.9584C14.9474 18.9584 18.9582 14.9476 18.9582 10C18.9582 5.05247 14.9474 1.04169 9.99984 1.04169ZM2.2915 10C2.2915 5.74283 5.74264 2.29169 9.99984 2.29169C14.257 2.29169 17.7082 5.74283 17.7082 10C17.7082 14.2572 14.257 17.7084 9.99984 17.7084C5.74264 17.7084 2.2915 14.2572 2.2915 10Z" fill="#585858"/>
<path d="M10.8332 15C10.8332 15.4603 10.4601 15.8334 9.99984 15.8334C9.5396 15.8334 9.1665 15.4603 9.1665 15C9.1665 14.5398 9.5396 14.1667 9.99984 14.1667C10.4601 14.1667 10.8332 14.5398 10.8332 15Z" fill="#585858"/>
</svg>
