<svg width="25" height="25" viewBox="0 0 25 25" fill="none" xmlns="http://www.w3.org/2000/svg">
<g clip-path="url(#clip0_313_705)">
<path d="M24.9868 12.7339C24.9868 11.7096 24.9018 10.9622 24.7177 10.1871H12.749V14.81H19.7744C19.6328 15.9589 18.8679 17.689 17.1682 18.8516L17.1444 19.0064L20.9286 21.8712L21.1908 21.8967C23.5987 19.7236 24.9868 16.5263 24.9868 12.7339Z" fill="#4285F4"/>
<path d="M12.749 24.9142C16.1908 24.9142 19.0803 23.8068 21.1908 21.8968L17.1682 18.8516C16.0917 19.5852 14.6469 20.0973 12.749 20.0973C9.37796 20.0973 6.51683 17.9243 5.49692 14.9208L5.34742 14.9332L1.41248 17.9091L1.36102 18.0489C3.45729 22.1182 7.76318 24.9142 12.749 24.9142Z" fill="#34A853"/>
<path d="M5.49691 14.9208C5.22779 14.1457 5.07205 13.3152 5.07205 12.457C5.07205 11.5988 5.22779 10.7684 5.48275 9.99331L5.47562 9.82823L1.49136 6.80457L1.361 6.86516C0.497031 8.5538 0.00128174 10.4501 0.00128174 12.457C0.00128174 14.464 0.497031 16.3602 1.361 18.0488L5.49691 14.9208Z" fill="#FBBC05"/>
<path d="M12.749 4.81669C15.1427 4.81669 16.7574 5.82709 17.6781 6.67145L21.2758 3.23883C19.0663 1.23187 16.1909 0 12.749 0C7.76321 0 3.4573 2.79589 1.36102 6.86516L5.48277 9.9933C6.51685 6.98977 9.37799 4.81669 12.749 4.81669Z" fill="#EB4335"/>
</g>
<defs>
<clipPath id="clip0_313_705">
<rect width="25" height="25" fill="white"/>
</clipPath>
</defs>
</svg>
