<svg width="24" height="24" viewBox="0 0 24 24" fill="none" xmlns="http://www.w3.org/2000/svg">
<path d="M19.8936 12.8192C20.3113 12.5855 20.4951 12.1479 20.4999 11.7584C20.5047 11.3696 20.3306 10.9216 19.9006 10.6916L19.5934 10.5274C14.9184 8.02724 10.045 6.02379 5.03223 4.54163C4.49555 4.38295 4.04882 4.68238 3.83448 5.0396C3.62088 5.39559 3.56983 5.89918 3.84224 6.33052L6.76727 10.962C7.12995 11.5363 7.12519 12.3502 6.73839 12.9517L3.69825 17.6791C3.42462 18.1046 3.45368 18.6062 3.66691 18.9696C3.88394 19.3395 4.33975 19.6215 4.87361 19.4477C9.92324 17.8041 14.846 15.6438 19.5823 12.9934L19.8936 12.8192Z" fill="#8E8E8E"/>
</svg>
