<svg width="34" height="25" viewBox="0 0 34 25" fill="none" xmlns="http://www.w3.org/2000/svg">
<path d="M0 1.5C0 0.671573 0.671573 0 1.5 0H32.5C33.3284 0 34 0.671573 34 1.5C34 2.32843 33.3284 3 32.5 3H1.5C0.671572 3 0 2.32843 0 1.5Z" fill="#FF8855"/>
<path d="M0 12.5C0 11.6716 0.671573 11 1.5 11H32.5C33.3284 11 34 11.6716 34 12.5C34 13.3284 33.3284 14 32.5 14H1.5C0.671572 14 0 13.3284 0 12.5Z" fill="#FF8855"/>
<path d="M0 23.5C0 22.6716 0.671573 22 1.5 22H32.5C33.3284 22 34 22.6716 34 23.5C34 24.3284 33.3284 25 32.5 25H1.5C0.671572 25 0 24.3284 0 23.5Z" fill="#DB2017"/>
</svg>
