<svg width="30" height="30" viewBox="0 0 30 30" fill="none" xmlns="http://www.w3.org/2000/svg">
<path fill-rule="evenodd" clip-rule="evenodd" d="M16.25 3.75C16.25 3.05964 15.6903 2.5 15 2.5C14.3096 2.5 13.75 3.05964 13.75 3.75V4.6875H13.0532C10.2719 4.6875 7.96988 6.85002 7.79625 9.62593L7.52 14.0427C7.41468 15.7267 6.84932 17.3496 5.88549 18.7345C5.01464 19.9858 5.78991 21.714 7.30358 21.8957L11.5625 22.4067V23.75C11.5625 25.6485 13.1015 27.1875 15 27.1875C16.8985 27.1875 18.4375 25.6485 18.4375 23.75V22.4067L22.6964 21.8957C24.21 21.714 24.9853 19.9858 24.1145 18.7345C23.1506 17.3496 22.5853 15.7267 22.48 14.0427L22.2037 9.62593C22.0301 6.85002 19.7281 4.6875 16.9467 4.6875H16.25V3.75ZM13.4375 23.75C13.4375 24.6129 14.137 25.3125 15 25.3125C15.8629 25.3125 16.5625 24.6129 16.5625 23.75V22.8125H13.4375V23.75Z" fill="#FF8855"/>
</svg>
