<svg width="24" height="24" viewBox="0 0 24 24" fill="none" xmlns="http://www.w3.org/2000/svg">
<path fill-rule="evenodd" clip-rule="evenodd" d="M5.84023 9.85617C7.62754 13.7481 10.808 16.8422 14.7618 18.5188L14.7743 18.5241L15.5381 18.8646C16.5107 19.2979 17.6539 18.9901 18.2776 18.1271L19.5519 16.3633C19.6298 16.2556 19.6097 16.1058 19.5063 16.0223L17.2815 14.2275C17.1709 14.1383 17.0083 14.1591 16.9237 14.2732L16.0578 15.4416C15.8475 15.7254 15.4678 15.824 15.146 15.6784C12.1896 14.3404 9.81391 11.9647 8.47598 9.00832C8.33037 8.68656 8.42896 8.30681 8.71272 8.09653L9.88109 7.23067C9.99526 7.14606 10.016 6.98343 9.92682 6.87284L8.13178 4.6478C8.04835 4.54438 7.8986 4.52429 7.79087 4.60207L6.01758 5.88222C5.14879 6.50941 4.84283 7.66226 5.28629 8.63771L5.83963 9.85487C5.83983 9.8553 5.84003 9.85574 5.84023 9.85617ZM14.1699 19.8971C9.87386 18.0735 6.4185 14.7105 4.47645 10.4808L4.47528 10.4782L3.92078 9.2585C3.18168 7.63275 3.69161 5.71134 5.13959 4.66603L6.91288 3.38587C7.667 2.84146 8.71523 2.98207 9.29923 3.70596L11.0943 5.931C11.7188 6.70517 11.5734 7.84357 10.7742 8.43581L10.1047 8.93196C11.2356 11.1264 13.028 12.9187 15.2224 14.0497L15.7185 13.3801C16.3108 12.581 17.4492 12.4355 18.2234 13.0601L20.4481 14.8549C21.1722 15.439 21.3126 16.4877 20.7678 17.2418L19.4934 19.0055C18.454 20.444 16.5487 20.957 14.9276 20.2347L14.1699 19.8971Z" fill="#898989"/>
</svg>
