<svg width="30" height="30" viewBox="0 0 30 30" fill="none" xmlns="http://www.w3.org/2000/svg">
<path d="M8.1818 10.2034C7.91277 10.1324 7.68917 9.9456 7.57147 9.69349C7.45377 9.44138 7.45413 9.15002 7.57245 8.8982L9.6484 4.48021C9.8031 4.15098 10.1343 3.94096 10.4981 3.94141C10.8618 3.94186 11.1925 4.1527 11.3464 4.48231L12.2622 6.44386C12.2949 6.43099 12.3287 6.41983 12.3635 6.41051C17.7977 4.95442 23.3833 8.17931 24.8394 13.6135C26.2955 19.0477 23.0706 24.6334 17.6364 26.0894C12.2023 27.5455 6.61659 24.3206 5.16051 18.8864C4.69748 17.1584 4.70789 15.4123 5.11344 13.7889C5.23892 13.2865 5.74787 12.9811 6.2502 13.1065C6.75253 13.232 7.05802 13.741 6.93253 14.2433C6.60217 15.5658 6.59306 16.9884 6.97162 18.4012C8.15969 22.8351 12.7172 25.4664 17.1512 24.2783C21.5851 23.0903 24.2164 18.5327 23.0283 14.0988C21.8597 9.73734 17.4309 7.12008 13.0664 8.1664L13.9903 10.1455C14.1442 10.4751 14.0935 10.864 13.8603 11.1432C13.6271 11.4223 13.2534 11.5414 12.9017 11.4486L8.1818 10.2034Z" fill="white"/>
</svg>
