<svg width="24" height="24" viewBox="0 0 24 24" fill="none" xmlns="http://www.w3.org/2000/svg">
<path d="M13.7214 2.52729C13.4611 2.26694 13.0389 2.26694 12.7786 2.52729C12.5182 2.78764 12.5183 3.20975 12.7786 3.4701L13.6405 4.33203L11.8522 4.33202C10.1322 4.3318 9.1036 4.33167 8.24891 4.60938C6.52376 5.16991 5.17122 6.52245 4.61068 8.2476C4.33298 9.1023 4.33311 10.1309 4.33332 11.8509V12.1465C4.33311 13.8665 4.33298 14.8951 4.61068 15.7498C4.72446 16.1 5.10056 16.2916 5.45073 16.1778C5.8009 16.064 5.99254 15.6879 5.87876 15.3378C5.6749 14.7103 5.66667 13.9119 5.66667 11.9987C5.66667 10.0855 5.6749 9.28705 5.87876 8.65962C6.3074 7.34039 7.3417 6.3061 8.66093 5.87745C9.28836 5.67359 10.0868 5.66536 12 5.66536H13.4086L12.5732 6.36155C12.2904 6.59726 12.2521 7.01764 12.4879 7.30049C12.7236 7.58334 13.1439 7.62155 13.4268 7.38585L14.8356 6.21187C15.2016 5.90688 15.4022 5.47921 15.4315 5.04338C15.4624 4.58368 15.3029 4.10878 14.9471 3.75299L13.7214 2.52729Z" fill="#FAFAFA"/>
<path d="M20.3918 7.80044C20.2823 7.44891 19.9086 7.2527 19.557 7.36219C19.2055 7.47169 19.0093 7.84543 19.1188 8.19696C19.3257 8.86132 19.3333 9.70514 19.3333 11.6967C19.3333 13.6883 19.3257 14.5321 19.1188 15.1965C18.685 16.589 17.6431 17.6673 16.3311 18.112C15.7082 18.3232 14.9151 18.332 13 18.332H11.6095L12.4714 17.4701C12.7318 17.2098 12.7318 16.7876 12.4714 16.5273C12.2111 16.2669 11.7889 16.2669 11.5286 16.5273L10.3029 17.753C9.94711 18.1088 9.78762 18.5837 9.81851 19.0434C9.84778 19.4792 10.0485 19.9069 10.4144 20.2119L11.8232 21.3858C12.1061 21.6216 12.5264 21.5833 12.7622 21.3005C12.9979 21.0176 12.9596 20.5973 12.6768 20.3615L11.8414 19.6654L13.1517 19.6654C14.8678 19.6656 15.9007 19.6658 16.7591 19.3748C18.4914 18.7877 19.8364 17.3762 20.3918 15.593C20.667 14.7095 20.6669 13.6449 20.6667 11.8419V11.5516C20.6669 9.7485 20.667 8.68393 20.3918 7.80044Z" fill="#FAFAFA"/>
</svg>
