<svg width="24" height="24" viewBox="0 0 24 24" fill="none" xmlns="http://www.w3.org/2000/svg">
<path fill-rule="evenodd" clip-rule="evenodd" d="M14.5315 1.25076C13.5866 1.23199 12.5362 1.56337 10.8118 2.1074L10.5871 2.17826C9.91207 2.39107 9.4967 2.522 9.11231 2.70945C8.31767 3.09696 7.62308 3.66249 7.08254 4.36209C6.82106 4.70051 6.60865 5.08071 6.26344 5.69862L3.81806 10.0749C3.03937 11.4679 2.5642 12.318 2.38199 13.1539C1.9794 15.0007 2.51019 16.9274 3.80176 18.3075C4.3863 18.9321 5.22977 19.4189 6.61199 20.2167L6.87371 20.3678C8.2557 21.166 9.09903 21.653 9.93223 21.8469C11.7732 22.2754 13.7072 21.7717 15.1053 20.4997C15.7381 19.924 16.2367 19.0874 17.0537 17.7165L19.621 13.4106C19.9835 12.8027 20.2066 12.4286 20.3689 12.033C20.7045 11.2151 20.847 10.3308 20.7853 9.44884C20.7554 9.02221 20.6611 8.59702 20.5079 7.90598L20.4569 7.676C20.0658 5.9106 19.8276 4.83527 19.3389 4.02633C18.3188 2.33765 16.504 1.28992 14.5315 1.25076ZM11.0973 3.59019C13.0399 2.9777 13.8359 2.73724 14.5017 2.75046C15.9597 2.77941 17.301 3.55382 18.055 4.80197C18.3994 5.37202 18.5892 6.18161 19.03 8.17012C19.2008 8.94037 19.2678 9.25157 19.2889 9.55357C19.3346 10.2054 19.2292 10.859 18.9812 11.4636C18.8663 11.7437 18.7049 12.0181 18.3009 12.6957L15.8427 16.8186C14.9235 18.3602 14.5421 18.9842 14.0958 19.3902C13.0625 20.3304 11.633 20.7027 10.2723 20.386C9.68469 20.2492 9.0473 19.8906 7.49286 18.9932C5.93842 18.0957 5.30918 17.723 4.89696 17.2826C3.94233 16.2625 3.55001 14.8384 3.84757 13.4733C3.97606 12.8839 4.32567 12.2416 5.20121 10.6747L7.54263 6.48444C7.92747 5.79572 8.08442 5.51876 8.26952 5.2792C8.66905 4.76211 9.18243 4.34411 9.76978 4.05769C10.0419 3.92499 10.3449 3.82744 11.0973 3.59019Z" fill="#898989"/>
<path fill-rule="evenodd" clip-rule="evenodd" d="M11.2567 7.20619C10.5663 8.40192 10.976 9.9309 12.1718 10.6213C13.3675 11.3116 14.8965 10.9019 15.5868 9.70619C16.2772 8.51046 15.8675 6.98148 14.6718 6.29113C13.476 5.60077 11.9471 6.01046 11.2567 7.20619ZM12.5557 7.95619C12.2796 8.43448 12.4435 9.04607 12.9218 9.32222C13.4001 9.59836 14.0117 9.43448 14.2878 8.95619C14.5639 8.4779 14.4001 7.86631 13.9218 7.59017C13.4435 7.31402 12.8319 7.4779 12.5557 7.95619Z" fill="#898989"/>
</svg>
