<svg width="24" height="24" viewBox="0 0 24 24" fill="none" xmlns="http://www.w3.org/2000/svg">
<path fill-rule="evenodd" clip-rule="evenodd" d="M15.7798 10.5037C16.372 9.06534 14.9337 7.62695 13.4953 8.21923L10.8184 9.32147C10.1403 9.60069 9.60181 10.1392 9.32259 10.8173L8.22035 13.4941C7.62807 14.9325 9.06645 16.3709 10.5048 15.7786L13.1817 14.6764C13.8598 14.3972 14.3983 13.8587 14.6775 13.1806L15.7798 10.5037ZM14.0664 9.60624C14.2719 9.52163 14.4774 9.72711 14.3927 9.9326L13.2905 12.6095C13.1636 12.9177 12.9188 13.1625 12.6106 13.2894L9.93372 14.3916C9.72824 14.4762 9.52275 14.2708 9.60737 14.0653L10.7096 11.3884C10.8365 11.0802 11.0813 10.8354 11.3895 10.7085L14.0664 9.60624Z" fill="white"/>
<path fill-rule="evenodd" clip-rule="evenodd" d="M15.0668 1.79454C14.2622 1.72265 13.2791 1.72265 12.0353 1.72266H11.9648C10.721 1.72265 9.73787 1.72264 8.9333 1.79454C8.10684 1.86838 7.41559 2.02142 6.76227 2.35657C6.59304 2.44339 6.42822 2.53855 6.26842 2.6417C5.65151 3.03991 5.17335 3.56204 4.69617 4.24085C4.23162 4.90168 3.74005 5.75312 3.11815 6.83029L3.08293 6.89129C2.46102 7.96846 1.96944 8.8199 1.62941 9.55262C1.28013 10.3053 1.06704 10.9804 1.03063 11.7138C1.0212 11.9038 1.0212 12.0941 1.03063 12.2841C1.06704 13.0174 1.28013 13.6926 1.62941 14.4452C1.96943 15.178 2.46101 16.0294 3.08291 17.1065L3.11813 17.1675C3.74003 18.2447 4.23162 19.0962 4.69617 19.757C5.17335 20.4358 5.65151 20.958 6.26842 21.3562C6.42822 21.4593 6.59304 21.5545 6.76227 21.6413C7.41559 21.9764 8.10684 22.1295 8.9333 22.2033C9.73786 22.2752 10.721 22.2752 11.9648 22.2752H12.0353C13.2791 22.2752 14.2623 22.2752 15.0668 22.2033C15.8933 22.1295 16.5845 21.9764 17.2378 21.6413C17.4071 21.5545 17.5719 21.4593 17.7317 21.3562C18.3486 20.958 18.8268 20.4358 19.3039 19.757C19.7685 19.0962 20.2601 18.2448 20.8819 17.1676L20.9172 17.1066C21.5391 16.0294 22.0307 15.178 22.3707 14.4452C22.72 13.6926 22.9331 13.0174 22.9695 12.2841C22.9789 12.0941 22.9789 11.9038 22.9695 11.7138C22.9331 10.9804 22.72 10.3053 22.3707 9.55263C22.0307 8.81989 21.5391 7.96846 20.9172 6.89128L20.8819 6.83024C20.26 5.75309 19.7685 4.90167 19.3039 4.24085C18.8268 3.56204 18.3486 3.03991 17.7317 2.6417C17.5719 2.53855 17.4071 2.44339 17.2378 2.35657C16.5845 2.02142 15.8933 1.86838 15.0668 1.79454ZM7.44693 3.6912C7.86815 3.47512 8.35098 3.35254 9.0668 3.28858C9.79692 3.22335 10.7133 3.22266 12.0001 3.22266C13.2868 3.22266 14.2032 3.22335 14.9333 3.28858C15.6491 3.35255 16.132 3.47512 16.5532 3.6912C16.6783 3.75537 16.8001 3.82571 16.9182 3.90195C17.3159 4.15869 17.6635 4.51555 18.0768 5.10348C18.4984 5.70317 18.9571 6.49641 19.6005 7.6108C20.2439 8.72519 20.7015 9.51911 21.0101 10.184C21.3126 10.8359 21.4479 11.3154 21.4713 11.7882C21.4783 11.9286 21.4783 12.0693 21.4713 12.2097C21.4479 12.6825 21.3126 13.1619 21.0101 13.8138C20.7015 14.4788 20.2439 15.2727 19.6005 16.3871C18.9571 17.5015 18.4984 18.2947 18.0768 18.8944C17.6635 19.4823 17.3159 19.8392 16.9182 20.0959C16.8001 20.1722 16.6783 20.2425 16.5532 20.3067C16.132 20.5228 15.6491 20.6453 14.9333 20.7093C14.2032 20.7745 13.2868 20.7752 12.0001 20.7752C10.7133 20.7752 9.79692 20.7745 9.0668 20.7093C8.35098 20.6453 7.86815 20.5228 7.44693 20.3067C7.32185 20.2425 7.20003 20.1722 7.08191 20.0959C6.68417 19.8392 6.3366 19.4823 5.9233 18.8944C5.50174 18.2947 5.04297 17.5015 4.39958 16.3871C3.75618 15.2727 3.2986 14.4788 2.99004 13.8138C2.68753 13.1619 2.55226 12.6825 2.52879 12.2097C2.52182 12.0693 2.52182 11.9286 2.52879 11.7882C2.55226 11.3154 2.68753 10.8359 2.99004 10.184C3.2986 9.51911 3.75618 8.72519 4.39958 7.6108C5.04297 6.4964 5.50174 5.70317 5.9233 5.10348C6.3366 4.51555 6.68417 4.15869 7.08191 3.90195C7.20003 3.82571 7.32185 3.75537 7.44693 3.6912Z" fill="white"/>
</svg>
